HIERARCHY
ROOT Hips
{
	OFFSET	0.00	0.00	0.00
	CHANNELS 6 Xposition Yposition Zposition Zrotation Xrotation Yrotation
	JOINT Spine
	{
		OFFSET	 0.00	0.01	 0.00
		CHANNELS 3 Zrotation Xrotation Yrotation
		JOINT Spine1
		{
			OFFSET	 0.00	 2.45913012437421	 0.00
			CHANNELS 3 Zrotation Xrotation Yrotation
            JOINT Neck
            {
                OFFSET	 0.00	 2.48462964506057	 0.00
                CHANNELS 3 Zrotation Xrotation Yrotation
                JOINT Head
                {
                    OFFSET	 0.00	 0.927524780924562	 0.00
                    CHANNELS 3 Zrotation Xrotation Yrotation
                    End Site 
                    {
                        OFFSET	 0.00	 1.14999962169752	 0.00
                    }
                }
            }
			JOINT LeftShoulder
			{
				OFFSET	 0.00	 2.48462964506057	 0.00
				CHANNELS 3 Zrotation Xrotation Yrotation
				JOINT LeftUpArm
				{
					OFFSET	 0.00	 1.24881979654096	 0.00
					CHANNELS 3 Zrotation Xrotation Yrotation
					JOINT LeftForeArm
					{
						OFFSET	 0.00	2.59758046908119	 0.00
						CHANNELS 3 Zrotation Xrotation Yrotation
						JOINT LeftHand
						{
							OFFSET	 0.00	2.45542024364365	 0.00
							CHANNELS 3 Zrotation Xrotation Yrotation
							JOINT LeftHandThumb 
							{
								OFFSET	 0.00	0.00	 0.00
								CHANNELS 3 Zrotation Xrotation Yrotation
								End Site
								{
									OFFSET	 0.00	0.00	1.00000003353624
								}
							}
							JOINT L_Wrist_End 
							{
								OFFSET	 0.00	0.99999967115358	 0.00
								CHANNELS 3 Zrotation Xrotation Yrotation
								End Site 
								{
									OFFSET	 0.00	 0.00	 0.00
								}
							}
						}
					}
				}
			}
			JOINT RightShoulder
			{
				OFFSET	 0.00	 2.48462964506057	 0.00
				CHANNELS 3 Zrotation Xrotation Yrotation
				JOINT RightUpArm
				{
					OFFSET	 0.00	 1.24881979654096	 0.00
					CHANNELS 3 Zrotation Xrotation Yrotation
					JOINT RightForeArm
					{
						OFFSET	 0.00	2.59758046908119	 0.00
						CHANNELS 3 Zrotation Xrotation Yrotation
						JOINT RightHand
						{
							OFFSET	 0.00	2.45542024364365	 0.00
							CHANNELS 3 Zrotation Xrotation Yrotation
							JOINT RightHandThumb 
							{
								OFFSET	 0.00	0.00	 0.00
								CHANNELS 3 Zrotation Xrotation Yrotation
								End Site
								{
									OFFSET	 0.00	0.00	1.00000003353624
								}
							}
							JOINT R_Wrist_End 
							{
								OFFSET	 0.00	0.99999967115358	 0.00
								CHANNELS 3 Zrotation Xrotation Yrotation
								End Site 
								{
									OFFSET	 0.00	 0.00	 0.00
								}
							}
						}
					}
				}
			}
		}
	}
	JOINT LeftUpLeg
	{
		OFFSET	 1.2719394002717	 0.00	 0.00
		CHANNELS 3 Zrotation Xrotation Yrotation
		JOINT LeftLowLeg
		{
			OFFSET	 0.00	-4.3429100912261	 0.00
			CHANNELS 3 Zrotation Xrotation Yrotation
			JOINT LeftFoot
			{
				OFFSET	 0.00	-4.48767017425826	 0.00
				CHANNELS 3 Zrotation Xrotation Yrotation
				JOINT LeftToeBase
                {
                    OFFSET	 0.00	0.00	 1.51507020887566
                    CHANNELS 3 Zrotation Xrotation Yrotation
                    End Site 
                    {
                        OFFSET	 0.00	0.00	 0.75000010571191
                    }
                }
			}
		}
	}
	JOINT RightUpLeg
	{
		OFFSET	 -1.2719393604653	 0.00	 0.00
		CHANNELS 3 Zrotation Xrotation Yrotation
		JOINT RightLowLeg
		{
			OFFSET	 0.00	-4.3429100912261	 0.00
			CHANNELS 3 Zrotation Xrotation Yrotation
			JOINT RightFoot
			{
				OFFSET	 0.00	-4.48767017425826	 0.00
				CHANNELS 3 Zrotation Xrotation Yrotation
				JOINT RightToeBase
                {
                    OFFSET	 0.00	0.00	 1.51507020887566
                    CHANNELS 3 Zrotation Xrotation Yrotation
                    End Site 
                    {
                        OFFSET	 0.00	0.00	 0.749999965609858
                    }
                }   
			}
		}
	}
}
MOTION 
Frames:	18 
Frame Time: 0.02 
 0.15147700309753417 9.231849975585938 9.355289916992188 -150.101 81.2031 149.842 3.05861 -7.59033 0.342897 3.48382 -10.2358 0.491778 -13.3989 66.6614 6.00635 64.7138 -79.4953 52.6183 -114.4489 -8.81165 -10.4714 4.41541 10.9767 -40.0398 0.0 48.1827 0.0 75.3443 1.86052 -22.4295 0.0 0.0 0.0 0.0 0.0 0.0 109.2564 -4.52005 5.89326 -1.44323 3.3723 46.311 0.0 47.5493 0.0 -75.5992 6.67662 18.5281 0.0 0.0 0.0 0.0 0.0 0.0 3.38997 -7.92831 -3.45476 0.0 5.50461 0.0 -9.50422 4.7706003 13.4 0.0 -42.1083 0.0 7.18613 -8.72818 1.1539 0.0 10.2872 0.0 10.3943 6.32316 -16.5203 0.0 -40.6329 0.0 
  0.1496749973297119 9.226099853515626 9.355419921875 -150.039 81.2128 149.918 3.04348 -7.65602 0.282615 3.49752 -10.2161 0.432294 -13.6303 66.6869 6.26188 64.7065 -79.5319 52.62 -114.512 -8.88983 -10.5336 4.456 10.8539 -40.1627 0.0 50.2532 0.0 76.0987 2.12593 -22.6553 0.0 0.0 0.0 0.0 0.0 0.0 109.3304 -4.64779 6.03613 -1.59055 3.33177 46.1381 0.0 49.8225 0.0 -76.4418 6.91304 18.997 0.0 0.0 0.0 0.0 0.0 0.0 3.38725 -7.90302 -3.58903 0.0 5.50069 0.0 -9.56174 4.7545996 13.378 0.0 -42.074898 0.0 7.19401 -8.68307 1.15657 0.0 10.2955 0.0 10.4492 6.2689896 -16.6488 0.0 -40.517403 0.0 
  0.14823200225830077 9.220800170898437 9.355499877929688 -150.018 81.2132 150.003 3.04147 -7.72604 0.233979 3.49927 -10.1904 0.382056 -13.736 66.7277 6.36657 64.922 -79.5642 52.921 -114.6026 -8.97334 -10.5926 4.54594 10.7518 -40.2737 0.0 52.2343 0.0 76.8724 2.22854 -22.848 0.0 0.0 0.0 0.0 0.0 0.0 109.421 -4.72662 6.17513 -1.81702 3.22741 45.7937 0.0 52.096 0.0 -77.3676 6.67834 19.6305 0.0 0.0 0.0 0.0 0.0 0.0 3.38504 -7.89419 -3.68692 0.0 5.51386 0.0 -9.54649 4.7641 13.3735 0.0 -42.1128 0.0 7.2009 -8.64521 1.16822 0.0 10.296 0.0 10.451 6.22326 -16.7578 0.0 -40.399498 0.0 
  0.14735899925231932 9.215659790039062 9.355560302734375 -149.999 81.2032 150.067 3.05885 -7.80299 0.191353 3.48593 -10.1634 0.334107 -13.815 66.773 6.45129 65.177 -79.5799 53.2781 -114.7056 -9.08626 -10.7312 4.62478 10.7089 -40.3994 0.0 54.0721 0.0 77.5522 2.7167 -22.936 0.0 0.0 0.0 0.0 0.0 0.0 109.4797 -4.77537 6.39484 -1.99263 3.10199 45.3433 0.0 54.3302 0.0 -78.1549 6.49213 20.1424 0.0 0.0 0.0 0.0 0.0 0.0 3.38582 -7.89257 -3.74057 0.0 5.52802 0.0 -9.59251 4.7299995 13.3384 0.0 -42.084602 0.0 7.21057 -8.61042 1.15744 0.0 10.2849 0.0 10.4893 6.18419 -16.8238 0.0 -40.3307 0.0 
  0.14642999649047853 9.210570068359376 9.355670166015624 -150.031 81.1934 150.184 3.07268 -7.89067 0.158281 3.46284 -10.1184 0.296428 -13.9186 66.7939 6.58181 65.4007 -79.5888 53.4963 -114.8086 -9.19284 -10.8491 4.69233 10.716 -40.5098 0.0 55.8434 0.0 78.2341 3.12792 -22.765 0.0 0.0 0.0 0.0 0.0 0.0 109.5255 -4.82145 6.5729 -2.17246 2.96097 44.9331 0.0 56.4488 0.0 -79.0521 6.42104 20.4164 0.0 0.0 0.0 0.0 0.0 0.0 3.3797 -7.90996 -3.69428 0.0 5.57036 0.0 -9.51635 4.7445 13.2539 0.0 -42.064697 0.0 7.20641 -8.58697 1.05122 0.0 10.2808 0.0 10.4744 6.16817 -16.8229 0.0 -40.2518 0.0 
  0.14531299591064453 9.204240112304687 9.355910034179688 -150.06 81.1793 150.285 3.10194 -8.02915 0.156276 3.42458 -9.9833 0.284282 -13.9597 66.7623 6.64944 65.7103 -79.6022 53.7451 -115.0253 -9.07366 -11.5779 4.88216 10.5407 -39.9377 0.0 57.4552 0.0 78.7575 3.55822 -22.7548 0.0 0.0 0.0 0.0 0.0 0.0 109.5753 -4.93283 6.73634 -2.34711 2.90568 44.6374 0.0 58.3918 0.0 -79.8976 6.35583 20.8021 0.0 0.0 0.0 0.0 0.0 0.0 3.3821 -7.89559 -3.68734 0.0 5.56503 0.0 -9.58301 4.7285995 13.1749 0.0 -42.0789 0.0 7.20688 -8.54897 0.956207 0.0 10.2547 0.0 10.4567 6.1599903 -16.8179 0.0 -40.2136 0.0 
  0.14419300079345704 9.1985400390625 9.355999755859376 -150.007 81.1959 150.277 3.1209 -8.12675 0.157479 3.3643 -9.90439 0.280554 -13.799 66.8555 6.50099 66.0281 -79.5271 54.0912 -114.936005 -9.36213 -10.9145 4.825 10.7755 -40.7093 0.0 59.1137 0.0 79.1773 3.61644 -22.6288 0.0 0.0 0.0 0.0 0.0 0.0 109.6172 -4.95352 6.88831 -2.52538 2.81965 44.3023 0.0 60.0618 0.0 -80.6139 6.317 21.1672 0.0 0.0 0.0 0.0 0.0 0.0 3.3809 -7.85181 -3.70592 0.0 5.56804 0.0 -9.51832 4.7325 13.1698 0.0 -42.071 0.0 7.20821 -8.47213 0.90971 0.0 10.2147 0.0 10.432 6.1502504 -16.8331 0.0 -40.1837 0.0 
  0.14299400329589843 9.193480224609376 9.356240234375 -149.858 81.2264 150.144 3.1392 -8.18589 0.17719 3.34405 -9.83723 0.294898 -13.7315 66.9453 6.43935 66.3214 -79.4913 54.367 -115.0058 -9.43078 -10.9233 4.91796 10.7728 -40.7699 0.0 60.4156 0.0 79.2481 4.22339 -22.8892 0.0 0.0 0.0 0.0 0.0 0.0 109.6294 -4.96918 7.01449 -2.71229 2.77234 44.0196 0.0 61.5111 0.0 -81.2555 6.34545 21.2879 0.0 0.0 0.0 0.0 0.0 0.0 3.39018 -7.78498 -3.73136 0.0 5.57013 0.0 -9.52628 4.7131996 13.1774 0.0 -42.069702 0.0 7.21956 -8.4033 0.926267 0.0 10.2234 0.0 10.4676 6.11604 -16.8463 0.0 -40.1426 0.0 
  0.1416119956970215 9.188560180664062 9.356320190429688 -149.84 81.2463 150.124 3.12939 -8.28662 0.190498 3.34633 -9.74287 0.30793 -13.6522 67.0218 6.36744 66.3783 -79.4394 54.4112 -115.0613 -9.47348 -10.9501 5.06573 10.7771 -40.5023 0.0 61.5758 0.0 79.7937 4.38031 -23.0234 0.0 0.0 0.0 0.0 0.0 0.0 109.6191 -4.91873 7.11894 -2.88805 2.70326 43.703 0.0 62.7647 0.0 -81.921 6.48563 21.1456 0.0 0.0 0.0 0.0 0.0 0.0 3.39129 -7.73977 -3.73743 0.0 5.58123 0.0 -9.57164 4.6686 13.1665 0.0 -41.98 0.0 7.22179 -8.35771 0.925931 0.0 10.233 0.0 10.4622 6.0951405 -16.8516 0.0 -40.108902 0.0 
  0.140177001953125 9.18322021484375 9.356290283203125 -149.842 81.2574 150.116 3.12127 -8.40804 0.216695 3.34151 -9.64179 0.334006 -13.5388 67.0788 6.26664 66.2186 -79.363 54.2433 -115.0939 -9.50256 -10.9887 5.20855 10.8072 -40.1873 0.0 62.5439 0.0 80.2426 4.59568 -23.0083 0.0 0.0 0.0 0.0 0.0 0.0 109.5997 -4.88061 7.14065 -3.03935 2.6585 43.4734 0.0 63.8225 0.0 -82.5856 6.71445 21.1402 0.0 0.0 0.0 0.0 0.0 0.0 3.39304 -7.70598 -3.76345 0.0 5.60696 0.0 -9.54054 4.6445 13.2066 0.0 -42.0086 0.0 7.2253 -8.31176 0.924433 0.0 10.2251 0.0 10.4514 6.08436 -16.8399 0.0 -40.1347 0.0 
  0.13840800285339355 9.178159790039063 9.356380004882812 -149.792 81.2715 150.085 3.1305 -8.51446 0.234475 3.30415 -9.55489 0.348616 -13.3743 67.1558 6.09488 66.2505 -79.2989 54.294 -115.1065 -9.51771 -11.0142 5.33685 10.8541 -39.882 0.0 63.3161 0.0 80.4945 5.05441 -22.9529 0.0 0.0 0.0 0.0 0.0 0.0 109.6109 -4.87168 7.19911 -3.19734 2.69089 43.2406 0.0 64.6959 0.0 -83.0481 6.91052 21.0532 0.0 0.0 0.0 0.0 0.0 0.0 3.40305 -7.6798 -3.72698 0.0 5.64213 0.0 -9.57692 4.6067 13.1396 0.0 -41.9915 0.0 7.23633 -8.25836 0.94505 0.0 10.2169 0.0 10.4573 6.06371 -16.8726 0.0 -40.104202 0.0 
  0.1367199993133545 9.173660278320312 9.3564501953125 -149.642 81.306 149.962 3.13386 -8.5688 0.253716 3.28282 -9.49438 0.366292 -13.1747 67.2308 5.86347 66.4282 -79.2639 54.4747 -115.116 -9.5033 -10.9942 5.46927 10.9035 -39.5959 0.0 63.8919 0.0 80.7146 5.57991 -22.6939 0.0 0.0 0.0 0.0 0.0 0.0 109.629 -4.91724 7.30988 -3.33664 2.80633 42.997 0.0 65.4354 0.0 -83.4441 7.07418 20.9559 0.0 0.0 0.0 0.0 0.0 0.0 3.40781 -7.62144 -3.85629 0.0 5.65768 0.0 -9.58571 4.5815 13.2319 0.0 -41.9625 0.0 7.24689 -8.18005 0.925355 0.0 10.2012 0.0 10.4424 6.0548 -16.8862 0.0 -40.111298 0.0 
  0.13486599922180176 9.170469970703126 9.356329956054687 -149.368 81.3704 149.741 3.12301 -8.56666 0.235935 3.28976 -9.43573 0.348022 -13.2211 67.2474 5.92716 66.5839 -79.267 54.5489 -115.1566 -9.49405 -10.9463 5.64865 10.9084 -39.3514 0.0 64.256 0.0 80.9273 6.16652 -22.5059 0.0 0.0 0.0 0.0 0.0 0.0 109.6314 -4.91182 7.38714 -3.42842 2.92009 42.814 0.0 66.1065 0.0 -83.6295 7.13109 20.8647 0.0 0.0 0.0 0.0 0.0 0.0 3.41068 -7.56343 -3.95487 0.0 5.7176 0.0 -9.59133 4.5396004 13.281 0.0 -41.944298 0.0 7.25974 -8.09429 0.945226 0.0 10.2247 0.0 10.4624 6.0167103 -16.939 0.0 -40.1288 0.0 
  0.13284600257873536 9.167550048828126 9.356279907226563 -149.118 81.4431 149.519 3.09556 -8.55384 0.229117 3.3256 -9.34872 0.343028 -13.1869 67.1682 5.88816 66.2806 -79.2635 54.2888 -115.1999 -9.48983 -10.9522 5.74722 10.9487 -39.1363 0.0 64.5235 0.0 80.9926 6.44459 -22.2915 0.0 0.0 0.0 0.0 0.0 0.0 109.6297 -4.89282 7.43305 -3.49948 3.00089 42.7223 0.0 66.7455 0.0 -83.6843 7.04445 20.8803 0.0 0.0 0.0 0.0 0.0 0.0 3.4127 -7.49176 -3.95935 0.0 5.76243 0.0 -9.6764 4.5007 13.2285 0.0 -41.9731 0.0 7.27316 -8.02902 1.04756 0.0 10.2935 0.0 10.5034 5.9546404 -17.036 0.0 -40.1115 0.0 
  0.1305090045928955 9.165050048828125 9.356010131835937 -148.859 81.5244 149.316 3.03917 -8.52306 0.188182 3.39664 -9.2875 0.309912 -13.224 67.1104 5.9276 65.909 -79.263 53.9639 -115.2192 -9.48787 -10.9452 5.75177 10.9787 -38.965 0.0 64.6849 0.0 81.1595 6.6101 -22.4437 0.0 0.0 0.0 0.0 0.0 0.0 109.6119 -4.79013 7.43262 -3.52772 3.02905 42.6679 0.0 67.302 0.0 -83.8527 6.86882 21.2969 0.0 0.0 0.0 0.0 0.0 0.0 3.41001 -7.42732 -3.99732 0.0 5.82402 0.0 -9.65632 4.4883003 13.2127 0.0 -41.9739 0.0 7.27841 -7.95964 1.12667 0.0 10.3637 0.0 10.5448 5.8805904 -17.1315 0.0 -40.1931 0.0 
  0.12830100059509278 9.163060302734374 9.355700073242188 -148.574 81.5966 149.092 2.99517 -8.44893 0.156775 3.45534 -9.30788 0.286909 -13.0589 67.0875 5.71342 65.5423 -79.2472 53.7052 -115.2264 -9.47753 -10.9326 5.67733 11.0075 -38.8513 0.0 64.8306 0.0 81.2463 6.87409 -22.1289 0.0 0.0 0.0 0.0 0.0 0.0 109.598404 -4.74634 7.5083 -3.51155 3.10713 42.4924 0.0 67.7657 0.0 -84.1132 6.94095 22.0688 0.0 0.0 0.0 0.0 0.0 0.0 3.41371 -7.37445 -4.02242 0.0 5.88278 0.0 -9.6572 4.4655 13.1804 0.0 -41.9561 0.0 7.29014 -7.88607 1.16793 0.0 10.4108 0.0 10.5679 5.8266 -17.2064 0.0 -40.1982 0.0 
  0.12618800163269042 9.160900268554688 9.355380249023437 -148.43 81.6394 148.986 2.9562 -8.42874 0.13788 3.51627 -9.2877 0.27416 -12.9434 67.0324 5.56594 65.3307 -79.2468 53.5684 -115.2602 -9.43083 -10.9463 5.58032 11.0113 -38.8025 0.0 64.9116 0.0 81.2216 7.10366 -21.9468 0.0 0.0 0.0 0.0 0.0 0.0 109.594 -4.70314 7.56491 -3.45222 3.15829 42.3751 0.0 68.2972 0.0 -84.5984 6.87555 22.5342 0.0 0.0 0.0 0.0 0.0 0.0 3.41645 -7.33869 -4.0209 0.0 5.91544 0.0 -9.67001 4.4468 13.149 0.0 -41.937202 0.0 7.29603 -7.83412 1.15776 0.0 10.4321 0.0 10.5633 5.7963495 -17.2158 0.0 -40.2028 0.0 
  0.12436699867248535 9.159299926757813 9.3552099609375 -148.47 81.6406 149.093 2.9111 -8.43369 0.10747 3.57873 -9.29391 0.252416 -12.9555 66.9573 5.59453 65.2323 -79.2454 53.4673 -115.3142 -9.37037 -10.8278 5.52949 10.9838 -38.8159 0.0 64.9833 0.0 81.2869 7.39465 -21.5925 0.0 0.0 0.0 0.0 0.0 0.0 109.5918 -4.64751 7.58679 -3.36862 3.12852 42.2911 0.0 68.9111 0.0 -84.9792 6.77671 22.8298 0.0 0.0 0.0 0.0 0.0 0.0 3.41338 -7.36418 -4.03855 0.0 5.95542 0.0 -9.66118 4.4446 13.1064 0.0 -41.9404 0.0 7.29269 -7.84477 1.13169 0.0 10.4747 0.0 10.5751 5.7494497 -17.2201 0.0 -40.2079 0.0 
